<?xml version="1.0" standalone="no"?>
<!DOCTYPE svg PUBLIC "-//W3C//DTD SVG 20010904//EN"
 "http://www.w3.org/TR/2001/REC-SVG-20010904/DTD/svg10.dtd">
<svg version="1.0" xmlns="http://www.w3.org/2000/svg"
 width="1363.000000pt" height="1363.000000pt" viewBox="0 0 1363.000000 1363.000000"
 preserveAspectRatio="xMidYMid meet">
<metadata>
Created by potrace 1.11, written by Peter Selinger 2001-2013
</metadata>
<g transform="translate(0.000000,1363.000000) scale(0.100000,-0.100000)"
fill="#000000" stroke="none">
<path d="M11035 10379 c-1285 -49 -2525 -273 -3685 -664 -124 -42 -229 -80
-233 -84 -5 -5 45 -90 112 -189 473 -709 877 -1475 1166 -2214 l38 -97 191
-102 c577 -308 1175 -661 1758 -1040 l227 -147 163 146 c199 178 608 585 784
782 417 465 749 891 1088 1395 60 88 112 163 118 166 17 11 -104 454 -195 709
-156 438 -389 917 -620 1278 l-47 72 -332 -2 c-183 0 -423 -5 -533 -9z"/>
<path d="M6220 9272 c-467 -213 -1299 -659 -1274 -682 5 -4 122 -45 259 -90
638 -211 1317 -473 1952 -755 130 -58 238 -103 241 -101 11 12 -316 623 -476
891 -207 346 -516 805 -541 804 -9 0 -81 -30 -161 -67z"/>
<path d="M3895 7893 c-785 -590 -1465 -1231 -2090 -1968 -336 -397 -662 -838
-899 -1219 l-87 -138 52 -117 c28 -64 93 -199 145 -301 l94 -185 78 -23 c1203
-356 2583 -497 3862 -397 1056 84 2044 317 2985 705 194 80 295 127 295 138 0
4 -9 82 -20 173 -79 636 -203 1200 -402 1816 l-71 221 -286 140 c-812 398
-1668 750 -2521 1036 -303 101 -832 263 -890 272 -33 5 -48 -5 -245 -153z"/>
<path d="M8822 5893 c78 -316 156 -718 198 -1018 20 -145 16 -137 53 -118 215
111 931 585 910 602 -12 11 -282 182 -495 315 -207 128 -697 416 -708 416 -4
0 15 -89 42 -197z"/>
</g>
</svg>
